<?xml version="1.0" encoding="UTF-8" standalone="no"?>
<svg
   version="1.1"
   x="0px"
   y="0px"
   viewBox="-180.5 -180.5 159.20026 188.38284"
   enable-background="new -180.5 -180.5 100 100"
   xml:space="preserve"
   id="svg18"
   sodipodi:docname="tank-water.svg"
   width="159.20026"
   height="188.38284"
   inkscape:version="1.4.3 (0d15f75, 2025-12-25)"
   xmlns:inkscape="http://www.inkscape.org/namespaces/inkscape"
   xmlns:sodipodi="http://sodipodi.sourceforge.net/DTD/sodipodi-0.dtd"
   xmlns="http://www.w3.org/2000/svg"
   xmlns:svg="http://www.w3.org/2000/svg"><defs
     id="defs18">
    <linearGradient
   id="tw-fill-grad"
   x1="-175.89787"
   y1="7.8305039"
   x2="-173.5502"
   y2="-140.45927"
   gradientUnits="userSpaceOnUse"
   gradientTransform="matrix(1.04068,0,0,1.0046682,4.8514486,-0.77144398)">
      <stop
   data-fill-stop="0"
   offset="0%"
   stop-color="#00d4ff"
   id="stop1" />
      <stop
   data-fill-stop="1"
   offset="100%"
   stop-color="#00d4ff"
   id="stop2" />
    </linearGradient>
  </defs><sodipodi:namedview
     id="namedview18"
     pagecolor="#ffffff"
     bordercolor="#000000"
     borderopacity="0.25"
     inkscape:showpageshadow="2"
     inkscape:pageopacity="0.0"
     inkscape:pagecheckerboard="0"
     inkscape:deskcolor="#d1d1d1"
     inkscape:zoom="2.177876"
     inkscape:cx="85.863475"
     inkscape:cy="69.563189"
     inkscape:window-width="1920"
     inkscape:window-height="991"
     inkscape:window-x="-9"
     inkscape:window-y="-9"
     inkscape:window-maximized="1"
     inkscape:current-layer="svg18" /><path
     id="fill"
     style="fill:url(#tw-fill-grad);stroke-width:1.02252"
     d="m -175.35159,-142.09 c 6.74584,4.15878 56.53507,7.55279 82.102584,7.18719 19.158301,-0.27395 37.463411,-1.39644 56.148607,-4.2515 3.946753,-0.60306 7.626789,-2.25727 11.599173,-2.93569 0.449157,5.04077 -1.180743,13.97841 -0.474142,20.15611 0.28721,2.51104 3.607001,2.3798 3.489403,4.74898 -0.06422,1.29377 -3.299452,2.46257 -3.361145,3.67541 -0.265467,5.21881 -0.411456,8.46635 -0.350498,12.53964 0.03281,2.19245 2.892967,3.412022 3.563402,5.529665 l -3.181868,3.553808 -0.323753,13.33811 3.332883,4.748373 -3.186967,4.263872 0.008,9.864904 3.302139,5.850519 -3.097154,5.054488 -0.114201,10.030952 3.342667,7.108012 -3.421371,5.844069 -0.273299,18.564534 c -5.735511,4.8089041 -13.263903,6.39062302 -20.056658,9.2964874 L -80.211189,6.0529895 -126.184,5.9449933 -152.6143,2.5342758 -171.22188,-3.4267813 c 0.11764,-4.4615541 -4.35542,0.5837984 -3.67305,-4.950918 0.70659,-5.7312687 0.0756,-11.1238467 -0.0103,-16.6846607 -0.0459,-2.970798 -3.96445,-4.429109 -3.8059,-7.339379 0.11644,-2.137314 3.5503,-4.275695 3.63408,-6.339276 0.15372,-3.786155 -0.35454,-5.334527 -0.30773,-8.99839 0.0342,-2.677185 -3.25569,-4.587842 -3.13799,-7.191912 0.0817,-1.807117 3.14009,-3.066846 3.22067,-4.836426 0.16087,-3.532851 -0.11173,-4.744179 0.0674,-8.220677 0.11657,-2.262267 -3.82633,-3.340787 -3.62796,-5.592217 0.12881,-1.461912 3.42097,-3.450262 3.56932,-4.903347 0.37692,-3.691852 -0.62951,-9.034096 -0.0529,-12.590774 0.32791,-2.022715 -3.97548,-2.846872 -3.53067,-4.828152 0.35361,-1.575064 3.15736,-3.048054 3.57965,-4.59464 1.11878,-4.09738 -1.72165,-8.5841 0.0892,-12.4339 0.89652,-1.90595 -4.69766,-2.98511 -3.56749,-4.82653 2.86189,-4.66297 4.20344,-2.36674 4.12515,-3.80342 z"
     sodipodi:nodetypes="csscsssscccccccccccccccccssssssssssssssscc" /><path
     id="tank"
     d="m -92.368218,-169.6931 c -0.577712,0 -1.046585,-0.46887 -1.046585,-1.04658 v -7.37204 c 0,-0.16327 -0.131875,-0.29514 -0.295126,-0.29514 h -15.757181 c -0.16536,0 -0.29303,0.12972 -0.29303,0.29514 v 7.37204 c 0,0.57771 -0.46887,1.04658 -1.04659,1.04658 -0.57769,0 -1.04656,-0.46887 -1.04656,-1.04658 v -7.37204 c 0,-1.3166 1.0696,-2.38828 2.38618,-2.38828 h 15.757181 c 1.316582,0 2.38828,1.07168 2.38828,2.38828 v 7.37204 c 0,0.57771 -0.46678,1.04658 -1.046569,1.04658 z M -100.65289,7.8828484 c -36.63627,0 -75.57291,-5.7854467 -75.57291,-16.5065236 V -24.686453 c -2.64783,-2.178962 -3.98744,-4.571424 -3.98744,-7.116685 0,-2.59759 1.34171,-5.019356 3.98744,-7.206692 v -8.761894 c -2.4113,-1.923599 -3.63371,-4.043953 -3.63371,-6.30036 0,-2.3506 1.22241,-4.506538 3.63371,-6.411296 v -7.472523 c -2.58712,-1.599152 -3.84511,-3.44322 -3.84511,-5.622176 0,-2.193622 1.26008,-4.043953 3.84511,-5.636842 v -11.296688 c -4.08373,-2.114066 -4.08373,-4.270002 -4.08373,-5.331236 0,-2.130808 1.33753,-3.880686 4.08373,-5.335425 v -11.3532 c -3.92883,-1.68498 -4.2742,-3.44532 -4.2742,-4.97539 0,-2.66039 2.27524,-4.10466 4.2742,-4.97541 v -19.8702 c 0,-0.0879 0.0108,-0.17373 0.0314,-0.25746 -0.0188,-0.20722 -0.0314,-0.38932 -0.0314,-0.57143 0,-10.21872 18.66036,-19.13551 47.62737,-22.80478 v -4.51283 c 0,-4.66561 23.07481,-4.90214 27.70066,-4.90214 4.623738,0 27.696451,0.23653 27.696451,4.90214 v 4.44794 c 29.266324,3.6316 48.123449,12.57351 48.123449,22.86757 0,0.19258 -0.01462,0.38515 -0.03559,0.57562 0.02302,0.0816 0.03559,0.16536 0.03559,0.25118 v 20.10044 c 2.541075,1.23078 3.778121,2.78808 3.778121,4.74726 0,1.45683 -0.305598,3.13343 -3.778121,4.75144 v 11.83671 c 2.413393,1.396123 3.587645,3.062275 3.587645,5.073779 0,1.597075 -0.450025,3.313453 -3.587645,5.071687 v 11.901606 c 2.222917,1.517534 3.351121,3.296711 3.351121,5.293566 0,2.042911 -1.096808,3.78231 -3.351121,5.304014 v 8.21978 c 2.080583,1.810568 3.135527,3.822077 3.135527,5.982201 0,2.139191 -1.054944,4.142329 -3.135527,5.96127 v 9.519614 c 2.317109,2.076397 3.491361,4.357923 3.491361,6.785968 0,2.358972 -1.174252,4.602822 -3.491361,6.672939 v 16.5065238 c 0,10.7252639 -38.938734,16.5107106 -75.57502,16.5107106 z M -174.13266,-142.08665 v 20.30558 c 0,0.43119 -0.26164,0.81632 -0.66353,0.97331 -3.20041,1.26217 -3.61067,2.42806 -3.61067,3.30299 0,0.80167 0,1.89848 3.60648,3.2946 0.40189,0.15699 0.66772,0.54421 0.66772,0.9754 v 12.7012 c 0,0.40187 -0.23025,0.770277 -0.59445,0.944007 -3.12925,1.50287 -3.48926,2.85923 -3.48926,3.748811 0,0.782834 0,2.093153 3.48298,3.734176 0.36629,0.173731 0.60073,0.540027 0.60073,0.946101 v 12.544194 c 0,0.376775 -0.20303,0.726329 -0.53165,0.912616 -2.2292,1.260078 -3.31346,2.610144 -3.31346,4.127678 0,0.958658 0.34328,2.428043 3.31555,4.113029 0.32862,0.186288 0.52956,0.533749 0.52956,0.910509 v 8.588168 c 0,0.332812 -0.15908,0.644681 -0.427,0.841447 -2.15803,1.590781 -3.20878,3.242274 -3.20878,5.052842 0,1.689166 1.08214,3.355309 3.21506,4.94819 0.26373,0.196756 0.42072,0.508634 0.42072,0.837257 v 9.77707 c 0,0.322344 -0.14865,0.627943 -0.40398,0.826792 -2.3778,1.854524 -3.58345,3.832544 -3.58345,5.879638 0,1.992671 1.20565,3.939294 3.58345,5.787539 0.25536,0.198849 0.40398,0.504448 0.40398,0.826792 v 16.5672244 c 0,6.8173662 30.17683,14.4133809 73.47977,14.4133809 43.305032,0 73.481877,-7.5960147 73.481877,-14.4133809 V -25.603249 c 0,-0.307692 0.136046,-0.602825 0.372579,-0.799581 2.070118,-1.743588 3.120875,-3.558344 3.120875,-5.396122 0,-1.908947 -1.048665,-3.763471 -3.120875,-5.509152 -0.236526,-0.198849 -0.372579,-0.491889 -0.372579,-0.799581 v -10.484551 c 0,-0.313972 0.142339,-0.611198 0.385137,-0.81214 1.825221,-1.486131 2.750391,-3.055989 2.750391,-4.663521 0,-1.653585 -0.89796,-3.183679 -2.748298,-4.682362 -0.244897,-0.198844 -0.38723,-0.498172 -0.38723,-0.814226 v -9.276813 c 0,-0.36211 0.188382,-0.699107 0.498167,-0.891673 2.55782,-1.576147 2.852954,-2.947157 2.852954,-3.840923 0,-1.387752 -0.933542,-2.641551 -2.85714,-3.836737 -0.305599,-0.190473 -0.493981,-0.52747 -0.493981,-0.889581 v -13.0947 c 0,-0.393517 0.219779,-0.753535 0.571428,-0.931451 3.016218,-1.540555 3.016218,-2.72737 3.016218,-3.512297 0,-0.835153 -0.313971,-2.10988 -3.026684,-3.529038 -0.345368,-0.180009 -0.563056,-0.537934 -0.563056,-0.927252 v -13.13657 c 0,-0.42282 0.253271,-0.80167 0.642595,-0.96493 3.135528,-1.31031 3.135528,-2.30456 3.135528,-3.10413 0,-0.75773 -0.326531,-1.90267 -3.1439,-3.11041 -0.385139,-0.16536 -0.634223,-0.54214 -0.634223,-0.96077 v -20.45209 c -0.05233,-0.13603 -0.07745,-0.28048 -0.0628,-0.427 0.04186,-0.37257 0.0628,-0.5484 0.0628,-0.72213 0,-9.1303 -18.96806,-17.53007 -47.200363,-20.90213 -0.525377,-0.0628 -0.92308,-0.50863 -0.92308,-1.04029 v -5.23076 c -1.174259,-1.22867 -10.756662,-2.95342 -25.60332,-2.95342 -14.85085,0 -24.43535,1.72475 -25.60751,2.95342 v 5.29145 c 0,0.52958 -0.39351,0.97542 -0.9189,1.0382 -27.93717,3.40555 -46.70638,11.78021 -46.70638,20.84144 0,0.20512 0.0251,0.41024 0.046,0.6112 0.0168,0.1528 0.002,0.32024 -0.046,0.47722 z m 73.23489,-23.92671 c -9.4359,0 -27.28203,-0.93564 -27.28203,-4.48351 0,-3.54788 17.84613,-4.48351 27.28203,-4.48351 9.435874,0 27.27782,0.93563 27.27782,4.48351 0,3.54787 -17.841946,4.48351 -27.27782,4.48351 z m 0,-7.70904 c -16.74515,0 -25.71218,2.0764 -26.02824,3.23808 0.31816,1.14078 9.28727,3.21717 26.02824,3.21717 16.738852,0 25.705874,-2.07639 26.024036,-3.23809 -0.31607,-1.14286 -9.283091,-3.21716 -26.024036,-3.21716 z m -0.39143,161.814583 c -30.88223,0 -68.13388,-4.847719 -76.94602,-15.491349 -0.22187,-0.267922 -0.1842,-0.663526 0.0837,-0.883307 0.26792,-0.219779 0.66143,-0.186289 0.88331,0.08373 5.99685,7.242274 32.32859,15.037138 75.97899,15.037138 33.241195,0 70.262613,-5.513339 76.703213,-16.048125 0.18001,-0.297227 0.567242,-0.391419 0.862374,-0.209316 0.297226,0.180011 0.389324,0.567242 0.209314,0.862377 -6.99319,11.439024 -45.216072,16.648856 -77.774901,16.648856 z m 0.14865,-24.293014 c -31.56041,0 -67.41804,-4.211403 -76.38715,-13.622173 -0.23862,-0.251178 -0.23025,-0.648875 0.0209,-0.887494 0.25118,-0.238617 0.64886,-0.230244 0.88749,0.02093 8.71165,9.140755 44.18414,13.232848 75.47664,13.232848 20.376731,0 39.541553,-1.651489 53.963306,-4.64887 11.679736,-2.425952 19.06853,-5.463103 21.963347,-9.027725 0.217687,-0.270015 0.613291,-0.309785 0.883306,-0.0921 0.270016,0.217686 0.309785,0.61329 0.0921,0.883305 -3.081107,3.796961 -10.712705,6.980631 -22.681295,9.467285 -14.503385,3.014126 -33.758211,4.673988 -54.218674,4.673988 z m -0.24072,-23.183645 c -20.46884,0 -39.73413,-1.268449 -54.24588,-3.575095 -11.54578,-1.835682 -18.8006,-4.069066 -22.18104,-6.823642 -0.26792,-0.217694 -0.30978,-0.613289 -0.09,-0.883302 0.21769,-0.270013 0.61329,-0.309791 0.8833,-0.09002 3.16065,2.574567 10.42177,4.78073 21.58449,6.555721 14.44688,2.296167 33.64309,3.560431 54.04705,3.560431 20.403953,0 39.598073,-1.264264 54.047034,-3.560431 12.389312,-1.969649 19.949743,-4.462583 22.469888,-7.407632 0.228153,-0.261642 0.623757,-0.293049 0.885399,-0.06909 0.261643,0.226065 0.29304,0.62166 0.06908,0.885395 -2.758761,3.221356 -10.35687,5.783351 -23.227605,7.830448 -14.511768,2.30874 -33.774949,3.577188 -54.241706,3.577188 z m 0.52538,-23.922531 c -20.50233,0 -39.80738,-1.094718 -54.35472,-3.081109 -11.27367,-1.540555 -18.73364,-3.508112 -22.17267,-5.848242 -0.28676,-0.194659 -0.36002,-0.586083 -0.16536,-0.872839 0.19467,-0.286755 0.5819,-0.36211 0.87284,-0.165359 3.27576,2.231291 10.55363,4.129771 21.63473,5.64312 14.49501,1.980113 33.73728,3.07063 54.18518,3.07063 20.450014,0 39.690175,-1.090517 54.183095,-3.07063 11.003652,-1.504978 18.2543,-3.384623 21.551,-5.5866 0.288853,-0.194674 0.676084,-0.117257 0.870747,0.17373 0.192568,0.288849 0.115118,0.678181 -0.173732,0.870746 -3.455778,2.308739 -10.886435,4.255353 -22.07847,5.787536 -14.545254,1.984299 -33.848214,3.079017 -54.35264,3.079017 z m -0.29094,-23.453673 c -20.53164,0 -39.85972,-0.90632 -54.42589,-2.54944 -9.40451,-1.06122 -16.15907,-2.36526 -20.07954,-3.87859 -0.32442,-0.12557 -0.4835,-0.48771 -0.36001,-0.81215 0.12556,-0.32233 0.4898,-0.48351 0.81215,-0.36002 3.81997,1.47357 10.46989,2.75039 19.76763,3.79905 14.52223,1.63893 33.80007,2.54318 54.28566,2.54318 20.48559,0 39.765529,-0.90425 54.285654,-2.54318 9.707995,-1.0947 16.521174,-2.44059 20.246969,-3.9958 0.322345,-0.12972 0.686551,0.0154 0.822606,0.337 0.133952,0.32025 -0.01674,0.68864 -0.336996,0.82259 -3.836731,1.60336 -10.765034,2.97646 -20.590246,4.08583 -14.568268,1.64521 -33.896356,2.55153 -54.427987,2.55153 z m 0.24909,-27.73414 c -36.43326,0 -75.15639,-3.04342 -75.15639,-8.68445 0,-0.34746 0.28048,-0.62794 0.62794,-0.62794 0.34746,0 0.62794,0.28048 0.62794,0.62794 0,3.03716 26.31709,7.42857 73.90051,7.42857 45.785394,0 73.900489,-4.32653 73.900489,-7.42857 0,-0.34746 0.28048,-0.62794 0.627942,-0.62794 0.347462,0 0.627943,0.28048 0.627943,0.62794 -0.0022,5.64103 -38.723137,8.68445 -75.156374,8.68445 z m 0,-26.44895 c -9.4359,0 -27.28203,-0.93564 -27.28203,-4.48142 v -5.06959 c 0,-3.54578 17.84613,-4.48351 27.28203,-4.48351 9.435875,0 27.277821,0.93564 27.277821,4.48351 v 5.06959 c 0,3.54578 -17.841946,4.48142 -27.277821,4.48142 z m 0,-12.77863 c -16.74515,0 -25.71217,2.0764 -26.02824,3.23808 v 5.05913 c 0.31816,1.15123 9.28937,3.22764 26.02824,3.22764 16.73676,0 25.705874,-2.07641 26.024037,-3.2381 v -5.05913 c -0.31607,-1.15332 -9.283091,-3.22762 -26.024037,-3.22762 z"
     style="display:inline;stroke-width:2.09314"
     inkscape:label="Tank" /></svg>
