<?xml version="1.0" encoding="UTF-8" standalone="no"?>
<!-- Created with Inkscape (http://www.inkscape.org/) -->

<svg width="119.28469mm" height="245.17316mm" viewBox="0 0 119.28469 245.17316" version="1.1" id="svg1" xml:space="preserve" inkscape:version="1.4.3 (0d15f75, 2025-12-25)" sodipodi:docname="tank-fermeterl.svg" xmlns:inkscape="http://www.inkscape.org/namespaces/inkscape" xmlns:sodipodi="http://sodipodi.sourceforge.net/DTD/sodipodi-0.dtd" xmlns="http://www.w3.org/2000/svg" xmlns:svg="http://www.w3.org/2000/svg"><sodipodi:namedview id="namedview1" pagecolor="#ffffff" bordercolor="#000000" borderopacity="0.25" inkscape:showpageshadow="2" inkscape:pageopacity="0.0" inkscape:pagecheckerboard="0" inkscape:deskcolor="#d1d1d1" inkscape:document-units="mm" showgrid="false" inkscape:zoom="0.66244982" inkscape:cx="-1010.6426" inkscape:cy="-227.94179" inkscape:window-width="2558" inkscape:window-height="1360" inkscape:window-x="4473" inkscape:window-y="0" inkscape:window-maximized="0" inkscape:current-layer="g3" /><defs id="defs1"><inkscape:path-effect effect="skeletal" id="path-effect206" is_visible="true" lpeversion="1" pattern="M 0,4.9921382 C 0,2.2364779 2.2364779,0 4.9921382,0 c 2.7556604,0 4.9921383,2.2364779 4.9921383,4.9921382 0,2.7556604 -2.2364779,4.9921383 -4.9921383,4.9921383 C 2.2364779,9.9842765 0,7.7477986 0,4.9921382 Z" copytype="single_stretched" prop_scale="-1.7134488" scale_y_rel="false" spacing="0" normal_offset="0" tang_offset="0" prop_units="false" vertical_pattern="false" hide_knot="false" fuse_tolerance="0" /><inkscape:path-effect effect="skeletal" id="path-effect202" is_visible="true" lpeversion="1" pattern="M 0,4.9921382 C 0,2.2364779 2.2364779,0 4.9921382,0 c 2.7556604,0 4.9921383,2.2364779 4.9921383,4.9921382 0,2.7556604 -2.2364779,4.9921383 -4.9921383,4.9921383 C 2.2364779,9.9842765 0,7.7477986 0,4.9921382 Z" copytype="single_stretched" prop_scale="1" scale_y_rel="false" spacing="0" normal_offset="0" tang_offset="0" prop_units="false" vertical_pattern="false" hide_knot="false" fuse_tolerance="0" /><inkscape:path-effect effect="skeletal" id="path-effect201" is_visible="true" lpeversion="1" pattern="M 0,4.9921382 C 0,2.2364779 2.2364779,0 4.9921382,0 c 2.7556604,0 4.9921383,2.2364779 4.9921383,4.9921382 0,2.7556604 -2.2364779,4.9921383 -4.9921383,4.9921383 C 2.2364779,9.9842765 0,7.7477986 0,4.9921382 Z" copytype="single_stretched" prop_scale="1" scale_y_rel="false" spacing="0" normal_offset="0" tang_offset="0" prop_units="false" vertical_pattern="false" hide_knot="false" fuse_tolerance="0" /></defs><g transform="matrix(0.02648497,0,0,-0.02695032,-6.4887824,249.75482)" fill="#000000" stroke="none" id="g3" style="display:inline"><path id="fill" style="display:inline;fill:#00d4ff;fill-opacity:1;stroke-width:0.264583" d="m 48.209774,163.58559 99.461906,-0.11702 -36.27435,62.83653 -26.211129,0.11701 c 0,0 -37.795525,-62.48548 -36.976427,-62.83652 z M 46.266933,59.234802 H 149.70515 V 159.05232 H 46.266933 Z" inkscape:label="fill" transform="matrix(37.757264,0,0,-37.105311,-1342.6218,10012.896)" /><path id="tank" style="fill:#808080" d="m 3524.9973,9267.0001 c -778,1 -977.989,-1.0063 -1011.989,-11.0063 -127,-40 -233.0076,-174.9998 -233.0076,-295.9998 v -39.9985 h -291.9912 c -391,-1 -425.0143,-4.9889 -494.0143,-62.9889 -55,-47 -67.9881,-87.9976 -73.9881,-230.9976 l -5.0144,-129.0074 -149.9858,-32.9996 c -542.99996,-123 -910.99914,-304.0037 -997.99914,-492.0037 l -22.00909,-46.9972 V 5959.997 3994.9928 l 78.0074,-127.9911 77.9879,-128.0103 -0.99509,-1741.9833 c 0,-1276.99995 2.00454,-1751.00201 11.00454,-1775.00201 6,-18 18.99425,-37.01177 28.99425,-42.01177 11,-6 105.00821,-9.99002 213.00821,-9.99002 177,0 197.00319,2.00213 218.00319,19.00213 l 23.99927,19.00213 2.98528,305.98988 3.00479,306.00905 h 429.00169 429.9968 V 691.99718 c 0,-125 1.009,-128.99493 26.009,-152.99493 l 25.9894,-24.00673 516.004,-2.99125 c 360,-2 529.0076,-0.004 555.0076,7.99585 56,16 68.9932,53.99919 64.9932,190.99919 l -3.0048,109.00818 h 433.0016 432.0065 V 517.00887 212.99398 l 23.0042,-20.99629 c 22,-21 31.9932,-21.99339 223.9932,-21.99339 h 202.0037 l 19.9994,26.0009 20.9945,26.99798 V 1978.006 3734.0059 l 63.998,100.9932 c 116,183 106.0066,136.0016 106.0066,519.0016 v 334.0041 l 120.9915,3.9884 c 113,3 121.9958,4.998 139.9958,26.998 19,23 19.0141,67.0108 17.0141,2160.0108 l -3.0048,2136.0042 -26.009,54.993 c -33,70 -94.9998,131.9925 -166.9998,166.9925 l -56.9934,28.0142 z m -16.9946,-157.0025 c 908,0 943.99,-1.0021 979.99,-19.0021 45,-23 77.0021,-55.9944 91.0021,-93.9944 8,-20 11.0046,-653.0098 11.0046,-2088.0098 V 4849.9927 h -59.9982 -59.9982 v 1512.0019 c 0,1677 3.9922,1573.9984 -66.0078,1670.9984 -116,160 -528.9987,339.999 -1013.9987,440.999 l -104.9919,22.0125 -4.995,134.9899 c -6,144 -14.0028,172.0106 -67.0028,220.0106 -68,64 -66.0014,63.9964 -441.0014,66.9964 l -341.9994,2.9912 5.99,26.998 c 12,54 16.9989,68.0106 35.9989,95.0106 11,15 35.9984,35.9972 55.9984,46.9972 36,19 67.0094,18.9992 980.0094,19.9992 z M 2360.9934,8758.0077 c 646,-3 729.9971,-5.0022 743.9971,-19.0022 19,-19 28.0094,-209.0042 10.0094,-209.0042 -6,0 -74.0003,9.0021 -151.0003,19.0021 -365,51 -806.0089,53.9988 -1159.0089,6.9988 -104,-14 -197.9987,-26.0009 -206.9987,-26.0009 -16,0 -17.9897,10.9944 -17.9897,93.9944 0,151 -84.0089,137.012 780.9911,134.012 z m -345.9993,-339.0088 c 190,16 687.0081,4.995 865.0081,-18.005 558,-75 1031.0001,-212.0025 1288.0001,-374.0025 45,-28 82.0073,-55.0006 82.0073,-59.0006 0,-5 -853.0063,-7.9958 -1895.0063,-7.9958 -1089,0 -1895.00623,4.0121 -1895.00623,9.0121 0,15 119.00282,86.9945 230.00282,139.9945 307,146 835.99421,269.9973 1324.99421,309.9973 z M 399.99888,7800.0013 H 2355.0033 4310.0078 V 5954.9924 4110.0027 H 2355.0033 399.99888 V 5954.9924 Z M 2355.0033,3950.009 c 1851,0 1886.002,0 1876.002,-19.0022 -27,-49 -191.0016,-322.016 -592.0016,-981.016 -240,-393 -518.0058,-850.9878 -619.0058,-1016.9878 l -182.9993,-302.9986 h -485.9951 l -485.9951,0.9971 -460.0057,759.9892 c -253,419 -566.9936,937.0161 -696.9936,1152.0161 -130,216 -237.00258,394.9842 -238.00258,399.9842 0,4 847.99678,7.018 1884.99678,7.018 z m 1782.9902,-490.0095 c 1,0 2.0097,-704.0008 2.0097,-1565.0008 V 329.99801 h -85.0121 -84.9925 V 1760.0088 3189.0034 l 83.0023,136.0062 c 45,74 82.9926,134.9899 84.9926,134.9899 z m -3569.99969,-0.9971 c 4,0 44.00704,-62.9974 90.00704,-138.9974 l 82.00729,-138.9974 V 1756.0013 329.99801 H 650.00109 559.99405 V 1894.9987 c 0,861 2.99976,1565.0037 7.99976,1564.0037 z M 3806.9986,2920.0015 c 2,0 3.0048,-437.0097 3.0048,-970.0097 V 980.00119 l -432.0065,1.99417 -433.0016,3.01043 v 127.99111 c 0,129 9e-4,128.995 -27.9991,152.995 -27,23 -35.005,24.0067 -158.005,24.0067 h -128.9913 v 90.006 89.9869 h 139.0007 c 118,0 141.9952,3.005 159.9952,18.005 11,9 117.0027,177.0084 234.0027,372.0084 378,627 640.0001,1059.9966 644.0001,1059.9966 z M 904.99828,2907.9982 c 3,-3 81.00451,-130.9965 174.00452,-283.9965 92,-153 282.0019,-467.9946 421.0019,-698.9946 139,-231 260.9918,-428.0106 271.9918,-437.0106 17,-15 41.0001,-18.005 159.0001,-18.005 h 139.0007 v -89.9869 -90.006 c 0,0 -86.8157,3.4599 -130.0058,0 -52.1848,-4.1805 -131.4862,-1.4898 -155.0002,-25.0038 -23.4966,-23.4966 -24.9944,-28.9891 -24.9944,-154.9891 V 980.00119 H 1330.0001 900.00331 v 966.99931 c 0,531 1.99497,963.9977 4.99497,960.9977 z M 2229.9925,1469.9915 h 125.0108 126.006 l -3.0048,-86.9956 -3.0048,-87.9927 -122.006,-3.0105 -123.0012,-2.9912 v 91.0031 z m -310.0004,-339.9866 h 435.0112 434.9918 V 900.00434 670.0038 h -434.9918 -435.0112 v 230.00054 z" sodipodi:nodetypes="ccscccccccccccccccsccccccscccccccccccsccccccsccccccccccccscccsccccccccccccssccssccccssscccccccccccscccccccccsssccccccscccccccscsscccscscccsccsscscscccssscccsscccccccccccccccccc" inkscape:label="tank" /><path d="m 2292,5100 c -214,-31 -372,-253 -333,-467 49,-267 329,-408 570,-287 195,98 274,339 176,536 -53,106 -173,199 -276,213 -24,4 -53,8 -64,9 -11,2 -44,0 -73,-4 z m 124,-165 c 103,-31 174,-126 174,-235 0,-72 -26,-126 -83,-176 -102,-90 -229,-86 -322,9 -81,83 -97,180 -47,277 33,65 84,108 149,126 63,17 71,17 129,-1 z" id="path2" style="display:inline;fill:#808080" inkscape:label="port" transform="translate(-2.9891168e-5,4.5608611e-4)" /><path d="m 1545,3285 c -30,-30 -32,-64 -4,-99 l 20,-26 h 355 c 276,0 354,-3 355,-12 0,-7 1,-43 3,-81 l 2,-68 -61,-33 c -178,-97 -213,-329 -71,-471 61,-62 121,-85 216,-85 113,0 207,58 263,164 32,60 32,203 -1,264 -31,58 -93,116 -147,139 l -45,18 v 133 c 0,128 -1,134 -25,157 l -24,25 h -406 -406 z m 875,-460 c 64,-33 89,-128 50,-192 -25,-41 -68,-63 -124,-63 -84,0 -149,88 -126,170 11,37 44,78 75,90 32,14 94,11 125,-5 z" id="tap-left" style="display:inline;fill:#ff7f2a" /><path d="m 3158.4181,3285 c 30,-30 32,-64 4,-99 l -20,-26 h -355 c -276,0 -354,-3 -355,-12 0,-7 -1,-43 -3,-81 l -2,-68 61,-33 c 178,-97 213,-329 71,-471 -61,-62 -121,-85 -216,-85 -113,0 -207,58 -263,164 -32,60 -32,203 1,264 31,58 93,116 147,139 l 45,18 v 133 c 0,128 1,134 25,157 l 24,25 h 406 406 z m -875,-460 c -64,-33 -89,-128 -50,-192 25,-41 68,-63 124,-63 84,0 149,88 126,170 -11,37 -44,78 -75,90 -32,14 -94,11 -125,-5 z" id="tap-right" style="display:none;fill:#ff7f2a" sodipodi:nodetypes="cccscccccsccccscccccccsccc" inkscape:label="tap-right" /></g></svg>
