<?xml version="1.0" encoding="UTF-8" standalone="no"?>
<!-- Created with Inkscape (http://www.inkscape.org/) -->

<svg width="111.73116mm" height="210.04662mm" viewBox="0 0 111.73116 210.04662" version="1.1" id="svg1" xml:space="preserve" sodipodi:docname="tank.svg" inkscape:version="1.4.3 (0d15f75, 2025-12-25)" xmlns:inkscape="http://www.inkscape.org/namespaces/inkscape" xmlns:sodipodi="http://sodipodi.sourceforge.net/DTD/sodipodi-0.dtd" xmlns="http://www.w3.org/2000/svg" xmlns:svg="http://www.w3.org/2000/svg"><sodipodi:namedview id="namedview1" pagecolor="#ffffff" bordercolor="#000000" borderopacity="0.25" inkscape:showpageshadow="2" inkscape:pageopacity="0.0" inkscape:pagecheckerboard="0" inkscape:deskcolor="#d1d1d1" inkscape:document-units="mm" showgrid="false" inkscape:zoom="0.51000141" inkscape:cx="1099.0166" inkscape:cy="501.95939" inkscape:window-width="2558" inkscape:window-height="1360" inkscape:window-x="4473" inkscape:window-y="0" inkscape:window-maximized="0" inkscape:current-layer="g3" /><defs id="defs1"><inkscape:path-effect effect="skeletal" id="path-effect206" is_visible="true" lpeversion="1" pattern="M 0,4.9921382 C 0,2.2364779 2.2364779,0 4.9921382,0 c 2.7556604,0 4.9921383,2.2364779 4.9921383,4.9921382 0,2.7556604 -2.2364779,4.9921383 -4.9921383,4.9921383 C 2.2364779,9.9842765 0,7.7477986 0,4.9921382 Z" copytype="single_stretched" prop_scale="-1.7134488" scale_y_rel="false" spacing="0" normal_offset="0" tang_offset="0" prop_units="false" vertical_pattern="false" hide_knot="false" fuse_tolerance="0" /><inkscape:path-effect effect="skeletal" id="path-effect202" is_visible="true" lpeversion="1" pattern="M 0,4.9921382 C 0,2.2364779 2.2364779,0 4.9921382,0 c 2.7556604,0 4.9921383,2.2364779 4.9921383,4.9921382 0,2.7556604 -2.2364779,4.9921383 -4.9921383,4.9921383 C 2.2364779,9.9842765 0,7.7477986 0,4.9921382 Z" copytype="single_stretched" prop_scale="1" scale_y_rel="false" spacing="0" normal_offset="0" tang_offset="0" prop_units="false" vertical_pattern="false" hide_knot="false" fuse_tolerance="0" /><inkscape:path-effect effect="skeletal" id="path-effect201" is_visible="true" lpeversion="1" pattern="M 0,4.9921382 C 0,2.2364779 2.2364779,0 4.9921382,0 c 2.7556604,0 4.9921383,2.2364779 4.9921383,4.9921382 0,2.7556604 -2.2364779,4.9921383 -4.9921383,4.9921383 C 2.2364779,9.9842765 0,7.7477986 0,4.9921382 Z" copytype="single_stretched" prop_scale="1" scale_y_rel="false" spacing="0" normal_offset="0" tang_offset="0" prop_units="false" vertical_pattern="false" hide_knot="false" fuse_tolerance="0" /></defs><g transform="matrix(0.02648497,0,0,-0.02695032,-6.4887824,214.62828)" fill="#000000" stroke="none" id="g3" style="display:inline"><path id="fill" style="display:inline;fill:#00d4ff;fill-opacity:1;stroke-width:0.264583" d="m 48.209774,163.58559 99.461906,-0.11702 -36.27435,62.83653 -26.211129,0.11701 c 0,0 -37.795525,-62.48548 -36.976427,-62.83652 z M 46.266933,59.234802 H 149.70515 V 159.05232 H 46.266933 Z" inkscape:label="fill" transform="matrix(37.757264,0,0,-37.105311,-1342.6218,10012.896)" /><path id="tank" style="fill:#808080" inkscape:label="tank" d="m 263.18349,7963.849 -18.18482,-38.848 V 5959.9968 3994.9927 l 78.0074,-127.9911 77.9879,-128.0103 -0.9951,-1741.9833 c 0,-1277.00003 2.00455,-1751.00202 11.00455,-1775.00202 6,-18 18.99425,-37.01177 28.99425,-42.01177 11,-6 105.00821,-9.99002 213.00821,-9.99002 177,0 197.00318,2.00213 218.00318,19.00213 l 23.99928,19.00213 2.98528,305.98987 1.3463,137.09911 v 818.45297 h 0.66339 v 477.45 c 0,531 1.99497,963.9977 4.99497,960.9977 3,-3 81.00442,-130.9965 174.00452,-283.9965 92,-153 282.0019,-467.9946 421.0019,-698.9946 139,-231 260.9918,-428.0106 271.9918,-437.0106 17,-15 41.0001,-18.005 159.0001,-18.005 h 139.0007 v -0.441 h 159.9952 v 0.441 h 125.0108 126.006 l -0.02,-0.441 h 149.0101 v 0.441 h 139.0007 c 118,0 141.9952,3.005 159.9952,18.005 11,9 117.0027,177.0084 234.0027,372.0084 378,627 640.0001,1059.9966 644.0001,1059.9966 2,0 3.0048,-437.0097 3.0048,-970.0097 V 980.00107 l -5.4242,0.0192 v -160.0129 h 5.4242 V 517.00875 212.99387 l 23.0042,-20.9963 c 22,-21 31.9932,-21.99338 223.9932,-21.99338 h 202.0037 l 19.9994,26.00089 20.9945,26.99798 V 1978.0059 3734.0058 l 63.998,100.9932 c 63.7643,100.5936 89.4549,131.6836 99.6653,202.9067 V 7779.024 c -3.735,102.1348 -9.6297,153.2808 -18.9262,184.825 h -432.826 c -324.3886,-2.469 -946.7582,-3.8542 -1656.9062,-3.8542 -670.8407,0 -1234.2873,1.5162 -1568.08926,3.8542 z M 399.99887,7800.0011 H 2355.0033 4310.0078 V 5954.9922 4110.0025 H 2355.0033 399.99887 V 5954.9922 Z M 2355.0033,3950.0088 c 1851,0 1886.002,10e-5 1876.002,-19.0021 -27,-49 -191.0016,-322.016 -592.0016,-981.016 -240,-393 -518.0058,-850.9878 -619.0058,-1016.9878 l -182.9993,-302.9986 h -485.9951 l -485.9951,0.997 -460.0057,759.9893 c -253,419 -566.9936,937.016 -696.9936,1152.016 -130,216 -237.00258,394.9843 -238.00258,399.9843 0,4 847.99678,7.0179 1884.99678,7.0179 z m 1782.9902,-490.0094 c 1,0 2.0097,-704.0008 2.0097,-1565.0008 V 329.99789 h -85.0121 -84.9925 V 1760.0087 3189.0033 l 83.0023,136.0062 c 45,74 82.9926,134.9899 84.9926,134.9899 z m -3569.99969,-0.9971 c 4,0 44.00704,-62.9974 90.00704,-138.9974 l 82.00729,-138.9974 V 1756.0012 329.99789 H 650.00109 559.99405 V 1894.9986 c 0,861 2.99976,1565.0037 7.99976,1564.0037 z" /></g></svg>
